<svg xmlns="http://www.w3.org/2000/svg" xmlns:xlink="http://www.w3.org/1999/xlink" viewBox="0 0 248.2841 292.7985"><defs><clipPath id="clip-path" transform="translate(-3.5404 -17.985)"><path d="M0,129.562A129.561,129.561,0,1,0,129.56,0,129.5608,129.5608,0,0,0,0,129.562" fill="none"/></clipPath></defs><g id="Layer_2" data-name="Layer 2"><g id="Layer_3" data-name="Layer 3"><g clip-path="url(#clip-path)"><path d="M22.286,286.83c-.104,0-.211-.002-.316-.008a6.4469,6.4469,0,0,1-6.1291-6.75c1.8381-38.051,33.568-52.141,50.09-54.276a6.4471,6.4471,0,0,1,1.667,12.786c-1.584.216-37.109,5.492-38.8779,42.112a6.4459,6.4459,0,0,1-6.434,6.136" transform="translate(-3.5404 -17.985)" fill="#febe2b"/><path d="M41.0194,292.0445a18.74,18.74,0,1,0-18.739,18.739,18.74,18.74,0,0,0,18.739-18.739" transform="translate(-3.5404 -17.985)" fill="#0d0e0e"/><path d="M233.08,286.83a6.4475,6.4475,0,0,1-6.4351-6.136c-1.77-36.659-37.3669-41.907-38.882-42.113a6.447,6.447,0,0,1,1.672-12.785c16.521,2.135,48.25,16.225,50.089,54.276a6.4468,6.4468,0,0,1-6.129,6.75c-.105.006-.2111.008-.3149.008" transform="translate(-3.5404 -17.985)" fill="#febe2b"/><path d="M129.0155,63.2648a1.9349,1.9349,0,0,1-1.9351-1.9339V35.6589a1.9346,1.9346,0,0,1,3.8691,0v25.672a1.9341,1.9341,0,0,1-1.934,1.9339" transform="translate(-3.5404 -17.985)"/><path d="M122.8916,37.505q-1.3859-1.3859-2.776-2.777c.095-.1389.181-.266.2681-.392q.5833-.85,1.1679-1.699a.1186.1186,0,0,0,.011-.1419,7.8416,7.8416,0,0,1-.561-1.3451.1631.1631,0,0,0-.15-.127c-.464-.083-.928-.17-1.391-.256-.321-.059-.64-.122-.963-.1779-.073-.0131-.094-.04-.0929-.1131.0029-.469.0019-.938.0019-1.407,0-.7769.001-1.555-.0019-2.332,0-.072.0109-.107.094-.1219.5949-.1051,1.1879-.2181,1.781-.3291.203-.037.406-.075.609-.112a.11.11,0,0,0,.1009-.086,8.0841,8.0841,0,0,1,.574-1.38.1246.1246,0,0,0-.019-.149l-1.377-2.0039c-.014-.02-.026-.0411-.036-.0571.9291-.927,1.8561-1.85,2.7891-2.782.203.139.4189.2871.6339.435q.72.4935,1.438.99a.1053.1053,0,0,0,.125.0059,8.496,8.496,0,0,1,1.397-.582.1131.1131,0,0,0,.065-.072q.2085-1.098.409-2.198c.019-.1.04-.199.06-.308h.103q1.869,0,3.739-.002c.075,0,.098.026.11.095.136.745.275,1.49.411,2.235.044.238.049.223.271.309.401.157.796.331,1.189.505a.1716.1716,0,0,0,.198-.01c.66-.459,1.324-.9129,1.987-1.368.019-.014.0411-.026.068-.044.036.0331.071.066.106.1q1.305,1.305,2.609,2.609c.056.056.057.089.0131.153-.4611.666-.9181,1.3351-1.3781,2.002a.1084.1084,0,0,0-.011.131,8.2437,8.2437,0,0,1,.573,1.381.12.12,0,0,0,.1081.092c.7989.147,1.5969.297,2.3969.443.063.011.079.035.079.0961q0,1.8869.004,3.7749c0,.061-.015.085-.0789.096q-.8821.16-1.7621.327c-.209.039-.418.079-.627.114a.1388.1388,0,0,0-.125.109,8.1,8.1,0,0,1-.57,1.371.1029.1029,0,0,0,.0119.124q.6675.97,1.334,1.943c.121.178.127.117-.027.27q-1.296,1.3-2.593,2.598c-.02.019-.041.0361-.0639.057q-.6557-.4485-1.3061-.894c-.2569-.177-.515-.3509-.768-.532a.1307.1307,0,0,0-.157-.006,7.8353,7.8353,0,0,1-1.3629.565.1053.1053,0,0,0-.0861.099q-.1695.9225-.342,1.844c-.04.212-.079.424-.12.64h-3.933c-.043-.2281-.088-.4571-.13-.6861-.1129-.609-.224-1.218-.34-1.826a.1018.1018,0,0,0-.062-.063,8.0557,8.0557,0,0,1-1.4039-.586.1069.1069,0,0,0-.125.0151q-1.01.6958-2.0191,1.3889l-.077.048m6.2-12.958a4.0548,4.0548,0,1,0,3.974,4.113,4.0551,4.0551,0,0,0-3.974-4.113" transform="translate(-3.5404 -17.985)" fill="#febe2b"/><path d="M143.5389,48.7731H114.4908a2.1893,2.1893,0,0,0-2.1309,1.69l-1.555,6.6491a2.1875,2.1875,0,0,0,2.13,2.6869h32.16a2.1885,2.1885,0,0,0,2.131-2.6869L145.67,50.4631a2.1885,2.1885,0,0,0-2.131-1.69" transform="translate(-3.5404 -17.985)" fill="#0d0e0e"/><path d="M184.452,233.6022c0,18.596-24.82,33.6711-55.4381,33.6711S73.578,252.1982,73.578,233.6022s24.819-33.6709,55.4359-33.6709,55.4381,15.075,55.4381,33.6709" transform="translate(-3.5404 -17.985)" fill="#4e4d4e"/><path d="M167.5507,216.7765c0,3.125-17.2531,5.658-38.5361,5.658s-38.535-2.533-38.535-5.658,17.2529-5.658,38.535-5.658,38.5361,2.533,38.5361,5.658" transform="translate(-3.5404 -17.985)" fill="#0d0e0e"/><path d="M233.0848,155.4625c0,45.791-46.5941,65.7591-104.07,65.7591s-104.07-19.9681-104.07-65.7591,46.594-100.0089,104.07-100.0089,104.07,54.218,104.07,100.0089" transform="translate(-3.5404 -17.985)" fill="#4e4d4e"/><path d="M88.955,232.1905a21.3887,21.3887,0,0,1-10.9211,18.67c-.013,0-.025.013-.0381.013a20.2555,20.2555,0,1,1,0-37.367c.0131,0,.0251.014.0381.014a21.3887,21.3887,0,0,1,10.9211,18.67" transform="translate(-3.5404 -17.985)" fill="#4e4d4e"/><path d="M90.412,232.1905a20.2748,20.2748,0,0,1-12.3781,18.67,21.4191,21.4191,0,0,0,0-37.34,20.2738,20.2738,0,0,1,12.3781,18.67" transform="translate(-3.5404 -17.985)" fill="#0d0e0e"/><path d="M169.0751,232.19a21.3888,21.3888,0,0,1,10.9209-18.67c.013,0,.025-.013.0381-.013a20.2556,20.2556,0,1,1,0,37.367c-.0131,0-.0251-.0139-.0381-.0139a21.3887,21.3887,0,0,1-10.9209-18.67" transform="translate(-3.5404 -17.985)" fill="#4e4d4e"/><path d="M167.618,232.19a20.2748,20.2748,0,0,1,12.378-18.67,21.4192,21.4192,0,0,0,0,37.34,20.2737,20.2737,0,0,1-12.378-18.67" transform="translate(-3.5404 -17.985)" fill="#0d0e0e"/><path d="M88.955,100.2672a2.5779,2.5779,0,0,1-2.578-2.579V64.4893a2.5785,2.5785,0,0,1,5.1569,0V97.6882a2.5781,2.5781,0,0,1-2.5789,2.579" transform="translate(-3.5404 -17.985)" fill="#febe2b"/><path d="M169.0741,100.2672a2.5779,2.5779,0,0,1-2.578-2.579V64.4893a2.5785,2.5785,0,0,1,5.157,0V97.6882a2.5782,2.5782,0,0,1-2.579,2.579" transform="translate(-3.5404 -17.985)" fill="#febe2b"/><path d="M214.3456,292.0445a18.7395,18.7395,0,1,1,18.7389,18.739,18.7395,18.7395,0,0,1-18.7389-18.739" transform="translate(-3.5404 -17.985)" fill="#0d0e0e"/><path d="M122.5975,247.4235c.773-.0069,1.549-.0069,2.3219-.0069h.8431c.493,0,.984,0,1.478.002,1.574,0,3.149-.005,4.724.0049a.5586.5586,0,0,0,.57-.3039c.745-1.3211,1.473-2.654,2.276-3.938a1.1738,1.1738,0,0,0-.006-1.517.8013.8013,0,0,0-.728-.4081c-2.126.013-4.2539.0061-6.3819.0061-.112,0-.221.0019-.3321-.005-.1659-.011-.224-.0921-.136-.245.2121-.372.428-.74.641-1.11.0851-.1479.2271-.1349.3661-.1349q2.331-.0016,4.6649-.002h9.6171l-1.36-2.321H136.47a1.0723,1.0723,0,0,0-.157-.01q-4.62.0195-9.24.0009a.6975.6975,0,0,0-.6951.394c-.8139,1.442-1.645,2.872-2.47,4.3061-.0551.0969-.157.19-.12.3009a3.8555,3.8555,0,0,0,.578,1.04c.151.2149.411.115.624.115,2.1119.007,4.2269.0029,6.339.0029.556,0,.5549.0021.271.4961-.124.216-.254.4289-.365.651a.6136.6136,0,0,1-.626.365q-2.4225-.012-4.846-.0061v-.0019h-10.248l1.331,2.318h5.623a.8869.8869,0,0,0,.129.0069" transform="translate(-3.5404 -17.985)" fill="#febe2b"/><path d="M138.9286,241.2h-2.6741c.1741.3.3521.5991.531.898a.5956.5956,0,0,1-.0129.685q-1.6635,2.8635-3.3031,5.7391a.7158.7158,0,0,1-.725.4069c-2.595-.0119-10.486-.0069-13.083-.0069-.4829,0-.965.005-1.4509-.0011-.2931-.0039-.432.0481-.2261.3681.238.372.442.764.6631,1.147a1.4926,1.4926,0,0,0,1.3869.8079c2.7641-.005,10.818-.0059,13.5821,0a1.52,1.52,0,0,0,1.42-.826q2.055-3.5683,4.113-7.1339a1.5787,1.5787,0,0,0-.0069-1.7171c-.0711-.123-.1431-.2439-.214-.367" transform="translate(-3.5404 -17.985)" fill="#febe2b"/><path d="M120.0565,243.7057h2.683c-.17-.292-.3461-.583-.525-.868a.7021.7021,0,0,1,.011-.831c1.088-1.856,2.1679-3.718,3.224-5.593a.8226.8226,0,0,1,.842-.481c3.026.018,10.3779.009,13.402.008.5019,0,.5119-.025.259-.468-.1931-.335-.3871-.669-.573-1.008a1.5508,1.5508,0,0,0-1.45-.861c-2.749-.002-9.8249-.003-12.573.002a1.5648,1.5648,0,0,0-1.4489.861q-2.0191,3.54-4.0721,7.063a1.6456,1.6456,0,0,0-.0019,1.796q.1138.189.223.38" transform="translate(-3.5404 -17.985)" fill="#febe2b"/><path d="M167.7977,96.3019a39.145,39.145,0,0,0-28.7661,12.597c-.709.774-1.392,1.573-2.0239,2.399a.0121.0121,0,0,0-.0131.012,12.4224,12.4224,0,0,1-16.698,0,.0121.0121,0,0,0-.0129-.012c-.6321-.813-1.301-1.612-2.0241-2.373a39.1466,39.1466,0,1,0-29.3079,65.681h.003v.009h.344c.0649,0,.13.004.195.004.046,0,.091-.004.1369-.004h78.03c.0461,0,.0911.004.1371.004.0519,0,.1029-.004.153-.004h1.124v-.034a39.15,39.15,0,0,0-1.277-78.279" transform="translate(-3.5404 -17.985)" fill="#febe2b"/><path d="M94.1132,169.4567l-5.1581-.0069a33.9977,33.9977,0,0,1,.5379-67.9911,33.4489,33.4489,0,0,1,12.4871,2.378,33.8615,33.8615,0,0,1,12.4771,8.5711c.2329.248.46.4959.6818.751l3.3411,3.296a17.5837,17.5837,0,0,0,20.33,0l3.342-3.307c.2159-.2491.442-.502.681-.763A34.0128,34.0128,0,0,1,155.28,103.85a33.584,33.584,0,0,1,12.5179-2.391,33.9926,33.9926,0,0,1,1.116,67.9671l-1.1289.032Z" transform="translate(-3.5404 -17.985)" fill="#0d0e0e"/><path d="M169.0741,153.3751a6.4462,6.4462,0,0,1-6.446-6.4469V123.9891a6.4465,6.4465,0,1,1,12.8929,0v22.9391a6.4464,6.4464,0,0,1-6.4469,6.4469" transform="translate(-3.5404 -17.985)" fill="#fff"/><path d="M88.955,153.3751a6.4462,6.4462,0,0,1-6.4461-6.4469V123.9891a6.4465,6.4465,0,1,1,12.893,0v22.9391a6.4464,6.4464,0,0,1-6.4469,6.4469" transform="translate(-3.5404 -17.985)" fill="#fff"/><path d="M129.0155,160.0846c-6.509,0-11.6071-6.746-11.6071-15.357a2.5785,2.5785,0,1,1,5.157,0c0,5.5291,2.954,10.2,6.45,10.2s6.448-4.6709,6.448-10.2a2.579,2.579,0,0,1,5.158,0c0,8.611-5.0981,15.357-11.606,15.357" transform="translate(-3.5404 -17.985)" fill="#fff"/></g></g></g></svg>