<?xml version="1.0" encoding="utf-8"?>
<!-- Generator: Adobe Illustrator 26.2.1, SVG Export Plug-In . SVG Version: 6.00 Build 0)  -->
<svg version="1.1" id="Layer_1" xmlns="http://www.w3.org/2000/svg" xmlns:xlink="http://www.w3.org/1999/xlink"
     x="0px" y="0px"
     viewBox="0 0 1920 1080" style="enable-background:new 0 0 1920 1080;" xml:space="preserve">
<style type="text/css">
	.st0{fill:#0D0E0E;}
	.st1{opacity:0.1;}
	.st2{clip-path:url(#SVGID_00000117644152570346974120000006280593544777227436_);}
	.st3{fill:#FFF8F0;}
	.st4{fill:#4E4D4E;}
	.st5{fill:#CFD2D3;}
	.st6{clip-path:url(#SVGID_00000037692727744821017650000008927398379225942716_);}
	.st7{clip-path:url(#SVGID_00000062151835806148739120000012803314393326160311_);}
	.st8{fill:#212323;}
	.st9{clip-path:url(#SVGID_00000043455559806089707890000013751848629194745728_);}
	.st10{clip-path:url(#SVGID_00000067233060942449069930000016639130500504917920_);}
	.st11{fill:none;stroke:#FDBE2B;stroke-width:2;stroke-miterlimit:10;}
	.st12{fill:#FEBF2B;}
	.st13{fill:none;stroke:#CFD2D3;stroke-width:1.5558;stroke-miterlimit:10;}
	.st14{clip-path:url(#SVGID_00000021077112013896172500000008702104998899856025_);}
	.st15{fill:none;stroke:#312F4B;stroke-width:2;stroke-miterlimit:10;}
	.st16{clip-path:url(#SVGID_00000178886732867645756680000018198308589452438186_);}
	.st17{fill:#FFFFFF;}
	.st18{clip-path:url(#SVGID_00000023282794576028836900000011711564842862378900_);fill:#151515;}
	.st19{opacity:6.000000e-02;clip-path:url(#SVGID_00000023282794576028836900000011711564842862378900_);}
	.st20{opacity:6.000000e-02;}
	.st21{clip-path:url(#SVGID_00000128449995411017697760000001696234931816259251_);}
	.st22{fill:#151515;}
	.st23{fill:none;stroke:#000000;stroke-width:1.5558;stroke-miterlimit:10;}
	.st24{opacity:0.22;fill:none;stroke:#211B29;stroke-width:2;stroke-miterlimit:10;}
	.st25{fill:#070707;}
	.st26{fill:#211B29;}
	.st27{opacity:0.25;}
	.st28{fill:none;stroke:#7C7B7B;stroke-width:2;stroke-miterlimit:10;}
	.st29{fill:none;stroke:#FFFFFF;stroke-width:1.5558;stroke-miterlimit:10;}
	.st30{fill:none;stroke:#FFFFFF;stroke-width:5;stroke-miterlimit:10;}
	.st31{fill:#B42226;}
	.st32{fill:none;stroke:#FEBF2B;stroke-miterlimit:10;}
	.st33{clip-path:url(#SVGID_00000173881341843752770440000003685046504767277988_);}
	.st34{fill:#1E1E1E;}
	.st35{clip-path:url(#SVGID_00000088836423315432772150000006876365195290537631_);}
	.st36{clip-path:url(#SVGID_00000093857509535547698100000010307987549053387177_);}
	.st37{clip-path:url(#SVGID_00000027578798275479256110000015497172541654260138_);}
	.st38{opacity:0.5;clip-path:url(#SVGID_00000162335283600091097470000013608553205680423055_);}
	.st39{clip-path:url(#SVGID_00000162335283600091097470000013608553205680423055_);}
	.st40{opacity:0.5;}
	.st41{opacity:0.3;}
	.st42{clip-path:url(#SVGID_00000106830908786880266060000010429110045773679497_);}
	.st43{opacity:0.2;}
	.st44{clip-path:url(#SVGID_00000146470884226672044790000009504818495299703227_);}
	.st45{clip-path:url(#SVGID_00000019647327551355766530000015812178649738591921_);}
	.st46{clip-path:url(#SVGID_00000100365447985647806730000006985046358787909048_);}
	.st47{clip-path:url(#SVGID_00000062194529695117407210000005019613535943288213_);}
	.st48{clip-path:url(#SVGID_00000070107110186340718260000006259543314042813828_);}
	.st49{fill:url(#SVGID_00000001659634813534285620000002462256794456198583_);}
</style>
    <rect class="st0" width="1920" height="1080"/>
    <g class="st1">
	<defs>
		<rect id="SVGID_1_" class="st1" width="1920" height="1080"/>
	</defs>
        <clipPath id="SVGID_00000013157476113804312350000006606919169189804957_">
		<use xlink:href="#SVGID_1_" style="overflow:visible;"/>
	</clipPath>
        <g id="XMLID_84_" style="clip-path:url(#SVGID_00000013157476113804312350000006606919169189804957_);">
		<polygon id="XMLID_166_" class="st3"
                 points="2037.7,-233.4 480.9,1311.3 2025.6,-245.5 2031.6,-251.5 2043.7,-239.4 		"/>
            <polygon id="XMLID_165_" class="st3"
                     points="2076,-233.4 519.2,1311.3 2063.9,-245.5 2069.9,-251.5 2082,-239.4 		"/>
            <polygon id="XMLID_164_" class="st3"
                     points="2114.3,-233.4 557.5,1311.3 2102.2,-245.5 2108.2,-251.5 2120.3,-239.4 		"/>
            <polygon id="XMLID_163_" class="st3"
                     points="2152.6,-233.4 595.8,1311.3 2140.5,-245.5 2146.5,-251.5 2158.6,-239.4 		"/>
            <polygon id="XMLID_162_" class="st3"
                     points="1712.2,1293.2 3269,-251.5 1724.3,1305.3 1718.3,1311.3 1706.2,1299.2 		"/>
            <polygon id="XMLID_161_" class="st3"
                     points="1674,1293.2 3230.7,-251.5 1686,1305.3 1680,1311.3 1667.9,1299.2 		"/>
            <polygon id="XMLID_160_" class="st3"
                     points="1635.7,1293.2 3192.4,-251.5 1647.7,1305.3 1641.7,1311.3 1629.6,1299.2 		"/>
            <polygon id="XMLID_159_" class="st3"
                     points="1597.4,1293.2 3154.2,-251.5 1609.4,1305.3 1603.4,1311.3 1591.3,1299.2 		"/>
            <polygon id="XMLID_158_" class="st3"
                     points="1559.1,1293.2 3115.9,-251.5 1571.1,1305.3 1565.1,1311.3 1553,1299.2 		"/>
            <polygon id="XMLID_157_" class="st3"
                     points="1520.8,1293.2 3077.6,-251.5 1532.9,1305.3 1526.8,1311.3 1514.7,1299.2 		"/>
            <polygon id="XMLID_156_" class="st3"
                     points="1482.5,1293.2 3039.3,-251.5 1494.6,1305.3 1488.6,1311.3 1476.4,1299.2 		"/>
            <polygon id="XMLID_155_" class="st3"
                     points="1444.2,1293.2 3001,-251.5 1456.3,1305.3 1450.3,1311.3 1438.2,1299.2 		"/>
            <polygon id="XMLID_154_" class="st3"
                     points="1405.9,1293.2 2962.7,-251.5 1418,1305.3 1412,1311.3 1399.9,1299.2 		"/>
            <polygon id="XMLID_153_" class="st3"
                     points="1367.6,1293.2 2924.4,-251.5 1379.7,1305.3 1373.7,1311.3 1361.6,1299.2 		"/>
            <polygon id="XMLID_152_" class="st3"
                     points="1329.3,1293.2 2886.1,-251.5 1341.4,1305.3 1335.4,1311.3 1323.3,1299.2 		"/>
            <polygon id="XMLID_151_" class="st3"
                     points="1291.1,1293.2 2847.8,-251.5 1303.1,1305.3 1297.1,1311.3 1285,1299.2 		"/>
            <polygon id="XMLID_150_" class="st3"
                     points="1252.8,1293.2 2809.5,-251.5 1264.8,1305.3 1258.8,1311.3 1246.7,1299.2 		"/>
            <polygon id="XMLID_149_" class="st3"
                     points="1214.5,1293.2 2771.3,-251.5 1226.5,1305.3 1220.5,1311.3 1208.4,1299.2 		"/>
            <polygon id="XMLID_148_" class="st3"
                     points="1176.2,1293.2 2733,-251.5 1188.2,1305.3 1182.2,1311.3 1170.1,1299.2 		"/>
            <polygon id="XMLID_147_" class="st3"
                     points="1137.9,1293.2 2694.7,-251.5 1150,1305.3 1143.9,1311.3 1131.8,1299.2 		"/>
            <polygon id="XMLID_146_" class="st3"
                     points="1099.6,1293.2 2656.4,-251.5 1111.7,1305.3 1105.7,1311.3 1093.5,1299.2 		"/>
            <polygon id="XMLID_145_" class="st3"
                     points="1061.3,1293.2 2618.1,-251.5 1073.4,1305.3 1067.4,1311.3 1055.3,1299.2 		"/>
            <polygon id="XMLID_144_" class="st3"
                     points="1023,1293.2 2579.8,-251.5 1035.1,1305.3 1029.1,1311.3 1017,1299.2 		"/>
            <polygon id="XMLID_143_" class="st3"
                     points="984.7,1293.2 2541.5,-251.5 996.8,1305.3 990.8,1311.3 978.7,1299.2 		"/>
            <polygon id="XMLID_142_" class="st3"
                     points="946.4,1293.2 2503.2,-251.5 958.5,1305.3 952.5,1311.3 940.4,1299.2 		"/>
            <polygon id="XMLID_141_" class="st3"
                     points="908.1,1293.2 2464.9,-251.5 920.2,1305.3 914.2,1311.3 902.1,1299.2 		"/>
            <polygon id="XMLID_140_" class="st3"
                     points="869.9,1293.2 2426.6,-251.5 881.9,1305.3 875.9,1311.3 863.8,1299.2 		"/>
            <polygon id="XMLID_139_" class="st3"
                     points="831.6,1293.2 2388.4,-251.5 843.6,1305.3 837.6,1311.3 825.5,1299.2 		"/>
            <polygon id="XMLID_138_" class="st3"
                     points="793.3,1293.2 2350.1,-251.5 805.3,1305.3 799.3,1311.3 787.2,1299.2 		"/>
            <polygon id="XMLID_137_" class="st3"
                     points="755,1293.2 2311.8,-251.5 767.1,1305.3 761,1311.3 748.9,1299.2 		"/>
            <polygon id="XMLID_136_" class="st3"
                     points="716.7,1293.2 2273.5,-251.5 728.8,1305.3 722.8,1311.3 710.6,1299.2 		"/>
            <polygon id="XMLID_135_" class="st3"
                     points="678.4,1293.2 2235.2,-251.5 690.5,1305.3 684.5,1311.3 672.4,1299.2 		"/>
            <polygon id="XMLID_134_" class="st3"
                     points="640.1,1293.2 2196.9,-251.5 652.2,1305.3 646.2,1311.3 634.1,1299.2 		"/>
            <polygon id="XMLID_133_" class="st3"
                     points="1999.4,-233.4 442.6,1311.3 1987.3,-245.5 1993.3,-251.5 2005.4,-239.4 		"/>
            <polygon id="XMLID_132_" class="st3"
                     points="1157,-233.4 -399.8,1311.3 1144.9,-245.5 1151,-251.5 1163.1,-239.4 		"/>
            <polygon id="XMLID_131_" class="st3"
                     points="1195.3,-233.4 -361.5,1311.3 1183.2,-245.5 1189.2,-251.5 1201.4,-239.4 		"/>
            <polygon id="XMLID_130_" class="st3"
                     points="1233.6,-233.4 -323.2,1311.3 1221.5,-245.5 1227.5,-251.5 1239.6,-239.4 		"/>
            <polygon id="XMLID_129_" class="st3"
                     points="1271.9,-233.4 -284.9,1311.3 1259.8,-245.5 1265.8,-251.5 1277.9,-239.4 		"/>
            <polygon id="XMLID_128_" class="st3"
                     points="1310.2,-233.4 -246.6,1311.3 1298.1,-245.5 1304.1,-251.5 1316.2,-239.4 		"/>
            <polygon id="XMLID_127_" class="st3"
                     points="1348.5,-233.4 -208.3,1311.3 1336.4,-245.5 1342.4,-251.5 1354.5,-239.4 		"/>
            <polygon id="XMLID_126_" class="st3"
                     points="1386.8,-233.4 -170,1311.3 1374.7,-245.5 1380.7,-251.5 1392.8,-239.4 		"/>
            <polygon id="XMLID_125_" class="st3"
                     points="1425,-233.4 -131.7,1311.3 1413,-245.5 1419,-251.5 1431.1,-239.4 		"/>
            <polygon id="XMLID_124_" class="st3"
                     points="1463.3,-233.4 -93.4,1311.3 1451.3,-245.5 1457.3,-251.5 1469.4,-239.4 		"/>
            <polygon id="XMLID_123_" class="st3"
                     points="1501.6,-233.4 -55.2,1311.3 1489.6,-245.5 1495.6,-251.5 1507.7,-239.4 		"/>
            <polygon id="XMLID_122_" class="st3"
                     points="1539.9,-233.4 -16.9,1311.3 1527.9,-245.5 1533.9,-251.5 1546,-239.4 		"/>
            <polygon id="XMLID_121_" class="st3"
                     points="1578.2,-233.4 21.4,1311.3 1566.1,-245.5 1572.1,-251.5 1584.3,-239.4 		"/>
            <polygon id="XMLID_120_" class="st3"
                     points="1616.5,-233.4 59.7,1311.3 1604.4,-245.5 1610.4,-251.5 1622.5,-239.4 		"/>
            <polygon id="XMLID_119_" class="st3"
                     points="1654.8,-233.4 98,1311.3 1642.7,-245.5 1648.7,-251.5 1660.8,-239.4 		"/>
            <polygon id="XMLID_118_" class="st3"
                     points="1693.1,-233.4 136.3,1311.3 1681,-245.5 1687,-251.5 1699.1,-239.4 		"/>
            <polygon id="XMLID_117_" class="st3"
                     points="1731.4,-233.4 174.6,1311.3 1719.3,-245.5 1725.3,-251.5 1737.4,-239.4 		"/>
            <polygon id="XMLID_116_" class="st3"
                     points="1769.7,-233.4 212.9,1311.3 1757.6,-245.5 1763.6,-251.5 1775.7,-239.4 		"/>
            <polygon id="XMLID_115_" class="st3"
                     points="1807.9,-233.4 251.2,1311.3 1795.9,-245.5 1801.9,-251.5 1814,-239.4 		"/>
            <polygon id="XMLID_114_" class="st3"
                     points="1846.2,-233.4 289.5,1311.3 1834.2,-245.5 1840.2,-251.5 1852.3,-239.4 		"/>
            <polygon id="XMLID_113_" class="st3"
                     points="1884.5,-233.4 327.7,1311.3 1872.5,-245.5 1878.5,-251.5 1890.6,-239.4 		"/>
            <polygon id="XMLID_112_" class="st3"
                     points="1922.8,-233.4 366,1311.3 1910.8,-245.5 1916.8,-251.5 1928.9,-239.4 		"/>
            <polygon id="XMLID_111_" class="st3"
                     points="1961.1,-233.4 404.3,1311.3 1949,-245.5 1955.1,-251.5 1967.2,-239.4 		"/>
            <polygon id="XMLID_110_" class="st3"
                     points="-432,1293.2 1124.8,-251.5 -419.9,1305.3 -426,1311.3 -438.1,1299.2 		"/>
            <polygon id="XMLID_109_" class="st3"
                     points="-470.3,1293.2 1086.5,-251.5 -458.2,1305.3 -464.2,1311.3 -476.4,1299.2 		"/>
            <polygon id="XMLID_108_" class="st3"
                     points="-508.6,1293.2 1048.2,-251.5 -496.5,1305.3 -502.5,1311.3 -514.6,1299.2 		"/>
            <polygon id="XMLID_107_" class="st3"
                     points="-546.9,1293.2 1009.9,-251.5 -534.8,1305.3 -540.8,1311.3 -552.9,1299.2 		"/>
            <polygon id="XMLID_106_" class="st3"
                     points="-585.2,1293.2 971.6,-251.5 -573.1,1305.3 -579.1,1311.3 -591.2,1299.2 		"/>
            <polygon id="XMLID_105_" class="st3"
                     points="-623.5,1293.2 933.3,-251.5 -611.4,1305.3 -617.4,1311.3 -629.5,1299.2 		"/>
            <polygon id="XMLID_104_" class="st3"
                     points="-661.7,1293.2 895,-251.5 -649.7,1305.3 -655.7,1311.3 -667.8,1299.2 		"/>
            <polygon id="XMLID_103_" class="st3"
                     points="-700,1293.2 856.7,-251.5 -688,1305.3 -694,1311.3 -706.1,1299.2 		"/>
            <polygon id="XMLID_102_" class="st3"
                     points="-738.3,1293.2 818.5,-251.5 -726.3,1305.3 -732.3,1311.3 -744.4,1299.2 		"/>
            <polygon id="XMLID_101_" class="st3"
                     points="-776.6,1293.2 780.2,-251.5 -764.6,1305.3 -770.6,1311.3 -782.7,1299.2 		"/>
            <polygon id="XMLID_100_" class="st3"
                     points="-814.9,1293.2 741.9,-251.5 -802.8,1305.3 -808.9,1311.3 -821,1299.2 		"/>
            <polygon id="XMLID_99_" class="st3"
                     points="-853.2,1293.2 703.6,-251.5 -841.1,1305.3 -847.1,1311.3 -859.3,1299.2 		"/>
            <polygon id="XMLID_98_" class="st3"
                     points="-891.5,1293.2 665.3,-251.5 -879.4,1305.3 -885.4,1311.3 -897.5,1299.2 		"/>
            <polygon id="XMLID_97_" class="st3"
                     points="-929.8,1293.2 627,-251.5 -917.7,1305.3 -923.7,1311.3 -935.8,1299.2 		"/>
            <polygon id="XMLID_96_" class="st3"
                     points="-968.1,1293.2 588.7,-251.5 -956,1305.3 -962,1311.3 -974.1,1299.2 		"/>
            <polygon id="XMLID_95_" class="st3"
                     points="-1006.4,1293.2 550.4,-251.5 -994.3,1305.3 -1000.3,1311.3 -1012.4,1299.2 		"/>
            <polygon id="XMLID_94_" class="st3"
                     points="-1044.6,1293.2 512.1,-251.5 -1032.6,1305.3 -1038.6,1311.3 -1050.7,1299.2 		"/>
            <polygon id="XMLID_93_" class="st3"
                     points="-1082.9,1293.2 473.8,-251.5 -1070.9,1305.3 -1076.9,1311.3 -1089,1299.2 		"/>
            <polygon id="XMLID_92_" class="st3"
                     points="-1121.2,1293.2 435.6,-251.5 -1109.2,1305.3 -1115.2,1311.3 -1127.3,1299.2 		"/>
            <polygon id="XMLID_91_" class="st3"
                     points="-1159.5,1293.2 397.3,-251.5 -1147.5,1305.3 -1153.5,1311.3 -1165.6,1299.2 		"/>
            <polygon id="XMLID_90_" class="st3"
                     points="-1197.8,1293.2 359,-251.5 -1185.7,1305.3 -1191.8,1311.3 -1203.9,1299.2 		"/>
            <polygon id="XMLID_89_" class="st3"
                     points="-1236.1,1293.2 320.7,-251.5 -1224,1305.3 -1230,1311.3 -1242.2,1299.2 		"/>
            <polygon id="XMLID_88_" class="st3"
                     points="-1274.4,1293.2 282.4,-251.5 -1262.3,1305.3 -1268.3,1311.3 -1280.4,1299.2 		"/>
            <polygon id="XMLID_87_" class="st3"
                     points="-1312.7,1293.2 244.1,-251.5 -1300.6,1305.3 -1306.6,1311.3 -1318.7,1299.2 		"/>
            <polygon id="XMLID_86_" class="st3"
                     points="-1351,1293.2 205.8,-251.5 -1338.9,1305.3 -1344.9,1311.3 -1357,1299.2 		"/>
            <polygon id="XMLID_85_" class="st3"
                     points="-1389.3,1293.2 167.5,-251.5 -1377.2,1305.3 -1383.2,1311.3 -1395.3,1299.2 		"/>
	</g>
</g>
    <g>
	<defs>
		<rect id="SVGID_00000076563336220302524840000002117021109770913415_" width="1920" height="1080"/>
	</defs>
        <clipPath id="SVGID_00000031925890094935083850000006148781072100307118_">
		<use xlink:href="#SVGID_00000076563336220302524840000002117021109770913415_" style="overflow:visible;"/>
	</clipPath>
        <g style="clip-path:url(#SVGID_00000031925890094935083850000006148781072100307118_);">
		<g>
			<path class="st34" d="M-215.6,1374.8c30.1-0.3,60.2-0.3,90.2-0.3h32.8c19.2,0,38.2,0,57.4,0.1c61.2,0,122.4-0.2,183.6,0.2
				c10.1,0.1,16.8-2.3,22.1-11.8c29-51.3,57.3-103.1,88.5-153c13.5-21.7,15-38.2-0.3-58.9c-7.9-10.7-14.8-16-28.2-15.9
				c-82.7,0.5-165.4,0.3-248,0.3c-4.3,0-8.6,0.1-12.9-0.2c-6.4-0.5-8.7-3.6-5.3-9.5c8.3-14.4,16.6-28.8,24.9-43.1
				c3.4-5.7,8.8-5.2,14.3-5.2c60.4,0,120.8,0,181.2-0.1h373.7L505.5,987H323.4c-1.9-0.3-3.9-0.4-6.1-0.4
				c-119.7,0.5-239.4,0.5-359.1,0.1c-13-0.1-20.6,4.1-27,15.3c-31.7,56-64,111.6-96,167.4c-2.1,3.7-6.1,7.4-4.6,11.7
				c4.8,14.8,13.5,27.9,22.4,40.4c5.9,8.3,16,4.4,24.2,4.4c82.1,0.3,164.3,0.1,246.4,0.1c21.6,0,21.5,0.1,10.5,19.3
				c-4.8,8.4-9.9,16.6-14.2,25.3c-5.1,10.2-12.4,14.3-24.3,14.2c-62.8-0.3-125.6-0.5-188.3-0.3v-0.1h-75.3h-17.3h-305.7l51.7,90.1
				h218.5C-219.1,1374.7-217.5,1374.8-215.6,1374.8z"/>
            <path class="st34" d="M-314.4,1230.3h104.2c-6.6-11.4-13.4-22.6-20.4-33.7c-7.4-11.7-6.3-20.8,0.5-32.3
				c42.2-72.1,84.2-144.5,125.2-217.3c7.9-14.1,16.7-18.8,32.8-18.7c117.6,0.7,403.3,0.4,520.8,0.3c19.5,0,19.9-1,10.1-18.2
				c-7.5-13-15-26-22.2-39.1c-12.2-22.4-31.1-33.4-56.4-33.5c-106.8-0.1-381.8-0.1-488.6,0.1c-25.1,0.1-43.5,11.1-56.3,33.5
				c-52.3,91.7-105.2,183.2-158.2,274.5c-13.7,23.6-14,46.2-0.1,69.8C-320.1,1220.4-317.2,1225.3-314.4,1230.3z"/>
		</g>
	</g>
        <g style="clip-path:url(#SVGID_00000031925890094935083850000006148781072100307118_);">
		<g>
			<path class="st34" d="M1695.8-164.1c0.3,30.1,0.3,60.2,0.3,90.2v32.8c0,19.2,0,38.2-0.1,57.4c0,61.2,0.2,122.4-0.2,183.6
				c-0.1,10.1,2.3,16.8,11.8,22.1c51.3,29,103.1,57.3,153,88.5c21.7,13.5,38.2,15,58.9-0.3c10.7-7.9,16-14.8,15.9-28.2
				c-0.5-82.7-0.3-165.4-0.3-248c0-4.3-0.1-8.6,0.2-12.9c0.5-6.4,3.6-8.7,9.5-5.3c14.4,8.3,28.8,16.6,43.1,24.9
				c5.7,3.4,5.2,8.8,5.2,14.3c0,60.4,0,120.8,0.1,181.2l0,373.7l90.2-52.8V374.9c0.3-1.9,0.4-3.9,0.4-6.1
				c-0.5-119.7-0.5-239.4-0.1-359.1c0.1-13-4.1-20.6-15.3-27c-56-31.7-111.6-64-167.4-96c-3.7-2.1-7.4-6.1-11.7-4.6
				c-14.8,4.8-27.9,13.5-40.4,22.4c-8.3,5.9-4.4,16-4.4,24.2c-0.3,82.1-0.1,164.3-0.1,246.4c0,21.6-0.1,21.5-19.3,10.5
				c-8.4-4.8-16.6-9.9-25.3-14.2c-10.2-5.1-14.3-12.4-14.2-24.3c0.3-62.8,0.5-125.6,0.3-188.3h0.1v-75.3v-17.3v-305.7l-90.1,51.7
				l0,218.5C1695.9-167.6,1695.8-165.9,1695.8-164.1z"/>
            <path class="st34" d="M1937.7,470.5V366.6c-11.7,6.8-23.3,13.7-34.9,20.6c-9.6,5.8-17.3,4.9-26.6-0.5
				c-74.2-43.1-148.3-86-223-128.3c-12.1-6.8-15.9-14.8-15.8-28.2c0.5-100.9,0.3-407.5,0.3-508.4c0-18.8-0.2-37.5,0.1-56.4
				c0.1-11.4-1.9-16.8-14.3-8.8c-14.4,9.3-29.7,17.2-44.6,25.8c-20.8,11.9-31.4,29.5-31.4,53.9c0.2,107.4,0.3,420.4,0,527.7
				c-0.1,25.1,10.7,42.9,32.1,55.2c92.4,53.2,184.9,106.3,277.2,159.8c22.6,13.1,44.2,13,66.7-0.3
				C1928.2,476,1932.9,473.2,1937.7,470.5z"/>
            <path class="st34" d="M1840.3-262.9v104.2c11.4-6.6,22.6-13.4,33.7-20.4c11.7-7.4,20.8-6.3,32.3,0.5
				c72.1,42.2,144.5,84.2,217.3,125.2c14.1,7.9,18.8,16.7,18.7,32.8c-0.7,117.6-0.4,403.3-0.3,520.8c0,19.5,1,19.9,18.2,10.1
				c13-7.5,26-15,39.1-22.2c22.4-12.2,33.4-31.1,33.5-56.4c0.1-106.8,0.1-381.8-0.1-488.6c-0.1-25.1-11.1-43.5-33.5-56.3
				c-91.7-52.3-183.2-105.2-274.5-158.2c-23.6-13.7-46.2-14-69.8-0.1C1850.2-268.6,1845.3-265.7,1840.3-262.9z"/>
		</g>
	</g>
</g>
</svg>