<svg id="Layer_1" data-name="Layer 1" xmlns="http://www.w3.org/2000/svg" viewBox="0 0 1000 407.98"><defs><style>.cls-1{fill:#fdbe2b;}</style></defs><path class="cls-1" d="M26.73,317.49c0-16.06,12.69-31.85,37.52-31.85H135.5l-6.75,22.27H64.52c-7.69,0-11.47,4.85-11.47,9.58s3.91,9.44,11.47,9.44h36.16c24.43,0,37.11,15.79,37.11,31.85,0,15.65-12,31.57-37.11,31.57H26.73l6.75-22.26h66.93c7.56,0,11.47-4.45,11.47-9.31s-3.78-9.72-11.47-9.72H64.25C39,349.06,26.73,333.27,26.73,317.49Z"/><path class="cls-1" d="M177.72,316.54V335h48.72c7.55,0,11.46-6.88,11.46-13.77s-3.77-13.35-11.46-13.35H152.76l4.79-15.82a9.08,9.08,0,0,1,8.69-6.45h59.12c25.36,0,38.86,18.62,38.86,36.84,0,17.54-12.42,34.81-38.86,34.81H177.72v33.06h-25V323.29Z"/><path class="cls-1" d="M300.1,316.54V335h44.67c7.55,0,11.47-6.88,11.47-13.77s-3.78-13.35-11.47-13.35H275.14l4.79-15.82a9.08,9.08,0,0,1,8.69-6.45H345c24.56,0,37.51,18.62,37.51,36.84,0,13.76-7.42,27.53-22.94,32.65l26.05,35.22h-22A14.19,14.19,0,0,1,352,384.23l-18.58-26.94H300.1v33.06h-25V323.29Z"/><path class="cls-1" d="M450.28,392.65C416.81,392.65,389,375,389,338s27.79-54.65,61.26-54.65c34.54,0,63,16.59,63,54.65S484.82,392.65,450.28,392.65ZM451.49,370c23.35,0,35.49-9.45,35.49-32s-12.14-32-35.49-32c-24.15,0-36.16,8.77-36.16,32S427.34,370,451.49,370Z"/><path class="cls-1" d="M629.6,285.64l-6.74,22.27H565.37c-13.76,0-20.91,15.51-20.91,30.76,0,14.84,6.74,29.42,20.91,29.42H629.6l-6.74,22.26H562.4c-29.14,0-44.26-26.85-44.26-53.3,0-25.91,14.44-51.41,44.26-51.41Z"/><path class="cls-1" d="M742.54,285.64l-56.68,51.14,59.38,53.57H713.73a14.18,14.18,0,0,1-9.69-3.83l-38.55-36.11v39.94h-25V296.64a9.08,9.08,0,0,1,6.72-8.77l18.25-4.93v42.78l42.64-40.08Z"/><path class="cls-1" d="M780.72,368.09h76.37l-6.75,22.26H755.75V294.72a9.09,9.09,0,0,1,9.08-9.08h92.26l-6.75,22.27H780.72v19h64.9V349.2h-64.9Z"/><path class="cls-1" d="M872.91,285.64H973.27l-6.75,22.27H927.39v82.44h-25V307.91H863.83V294.72A9.08,9.08,0,0,1,872.91,285.64Z"/><path class="cls-1" d="M430.75,170c8.35-.07,16.71-.07,25.06-.07h9.09c5.32,0,10.62,0,15.94,0,17,0,34-.06,51,0,2.81,0,4.66-.64,6.14-3.28,8-14.25,15.91-28.63,24.57-42.49,3.76-6,4.16-10.62-.07-16.37-2.2-3-4.1-4.44-7.84-4.41-23,.14-45.92.07-68.88.07-1.2,0-2.38,0-3.58,0-1.79-.13-2.42-1-1.47-2.65,2.29-4,4.62-8,6.91-12,.93-1.6,2.46-1.45,4-1.45q25.15,0,50.33,0H645.68L631,62.27H580.44a11.25,11.25,0,0,0-1.69-.11q-49.86.21-99.72,0c-3.61,0-5.73,1.15-7.48,4.25-8.8,15.56-17.77,31-26.67,46.47-.59,1-1.68,2-1.29,3.24,1.33,4.12,3.76,7.74,6.23,11.23,1.63,2.31,4.45,1.24,6.74,1.24,22.8.07,45.61,0,68.41,0,6,0,6,0,2.92,5.35-1.34,2.33-2.74,4.62-3.94,7-1.42,2.83-3.46,4-6.75,3.94q-26.15-.13-52.3-.07v0H354.32l14.37,25h60.66A12.25,12.25,0,0,0,430.75,170Z"/><path class="cls-1" d="M607,102.79H578.12c1.88,3.24,3.8,6.47,5.73,9.69,1.62,2.67,1.37,4.8-.14,7.4q-17.94,30.88-35.64,61.93c-1.88,3.35-4.12,4.4-7.82,4.38-28-.12-113.15-.07-141.18-.07-5.21,0-10.42.06-15.65,0-3.17,0-4.68.52-2.46,4,2.58,4,4.79,8.24,7.17,12.38,3.31,5.78,8.2,8.72,15,8.72,29.82-.06,116.73-.07,146.55,0,7,0,11.91-3,15.33-8.92q22.15-38.49,44.38-77C613,119,613,113,609.29,106.75,608.52,105.43,607.74,104.12,607,102.79Z"/><path class="cls-1" d="M403.33,129.83h28.94c-1.82-3.15-3.72-6.28-5.66-9.36-2.06-3.26-1.73-5.77.13-9,11.73-20,23.39-40.12,34.78-60.36,2.2-3.9,4.64-5.23,9.1-5.19,32.64.2,112,.11,144.61.09,5.41,0,5.53-.27,2.79-5-2.07-3.62-4.17-7.22-6.17-10.87-3.39-6.22-8.64-9.28-15.66-9.3-29.65,0-106,0-135.67,0-7,0-12.09,3.08-15.64,9.3Q423.1,68.33,401,106.36c-3.81,6.55-3.89,12.82,0,19.37Q402.15,127.77,403.33,129.83Z"/></svg>