<?xml version="1.0" standalone="no"?>
<!DOCTYPE svg PUBLIC "-//W3C//DTD SVG 20010904//EN"
 "http://www.w3.org/TR/2001/REC-SVG-20010904/DTD/svg10.dtd">
<svg version="1.0" xmlns="http://www.w3.org/2000/svg"
 width="1208.000000pt" height="1208.000000pt" viewBox="0 0 1208.000000 1208.000000"
 preserveAspectRatio="xMidYMid meet">
<metadata>
Created by potrace 1.14, written by Peter Selinger 2001-2017
</metadata>
<g transform="translate(0.000000,1208.000000) scale(0.100000,-0.100000)"
fill="#000000" stroke="none">
<path d="M5316 9773 c-1 -2 -202 -3 -447 -3 -244 -1 -469 -6 -499 -11 -219
-39 -371 -162 -508 -409 -24 -44 -170 -300 -322 -565 -9 -16 -131 -228 -270
-470 -139 -242 -268 -465 -285 -495 -36 -63 -142 -248 -155 -270 -5 -8 -66
-114 -136 -235 -69 -121 -135 -232 -145 -247 -11 -15 -19 -30 -19 -32 0 -3
-18 -35 -40 -71 -22 -36 -40 -67 -40 -70 0 -2 -31 -56 -70 -121 -39 -64 -70
-118 -70 -119 0 -2 -27 -48 -59 -103 -139 -233 -166 -314 -165 -487 1 -148 26
-225 136 -417 l62 -108 564 0 563 0 -32 58 c-18 31 -45 76 -61 99 -15 23 -28
44 -28 46 0 3 -27 48 -61 101 -95 151 -110 221 -71 322 10 27 139 256 287 509
147 253 276 474 285 490 26 46 165 286 189 325 11 19 24 42 28 50 4 8 37 67
74 130 37 63 176 306 309 540 133 234 253 440 267 458 14 18 43 47 66 63 89
64 -148 60 3057 59 2351 0 2920 3 2940 13 39 20 29 61 -53 204 -41 71 -87 153
-104 183 -17 30 -54 95 -82 143 -28 49 -51 91 -51 94 0 3 -20 33 -44 67 -77
108 -184 192 -299 234 -31 12 -59 22 -62 21 -3 0 -30 5 -61 11 -40 9 -659 12
-2320 13 -1246 1 -2267 1 -2268 0z"/>
<path d="M5132 8158 c-94 -16 -151 -68 -232 -212 -67 -120 -78 -139 -111 -196
-15 -25 -37 -63 -49 -85 -26 -46 -167 -293 -181 -315 -7 -11 -262 -455 -399
-695 -164 -286 -284 -493 -294 -505 -25 -29 -25 -62 0 -129 32 -85 91 -193
168 -306 87 -128 113 -144 224 -135 98 9 2883 5 2909 -4 43 -14 35 -50 -39
-178 -18 -31 -69 -121 -113 -199 -89 -160 -115 -191 -183 -221 l-47 -21 -3197
0 c-1759 0 -3198 -2 -3198 -5 0 -6 53 -101 83 -149 15 -24 27 -45 27 -48 0 -3
10 -22 23 -43 13 -20 37 -62 54 -92 17 -30 63 -111 103 -180 41 -69 78 -134
84 -145 6 -11 49 -85 94 -165 l83 -145 3207 0 c2558 1 3214 3 3244 13 43 15
107 82 139 144 12 23 45 84 74 133 28 50 67 117 85 150 31 56 93 168 125 225
70 123 278 488 285 500 5 8 77 128 158 265 82 138 174 291 204 340 81 133 111
213 114 311 5 125 -27 214 -123 341 -64 85 -126 132 -197 148 -37 8 -438 11
-1465 11 -777 -1 -1431 0 -1453 2 -27 3 -44 11 -54 28 -15 22 -14 27 16 86 18
35 39 71 48 81 8 9 11 17 7 17 -4 0 -1 8 7 18 8 9 56 90 107 178 51 89 103
172 117 185 l26 24 3036 2 c1670 1 3039 2 3041 2 2 1 -4 12 -13 26 -10 14 -27
45 -39 68 -13 23 -30 53 -39 67 -8 14 -118 201 -243 415 -125 215 -229 392
-231 394 -7 8 -5949 7 -5992 -1z"/>
<path d="M9070 6586 c0 -3 53 -94 118 -204 131 -219 142 -244 142 -311 -1 -59
-12 -83 -170 -357 -73 -126 -141 -242 -150 -259 -10 -16 -31 -53 -47 -81 -17
-27 -41 -70 -55 -95 -14 -24 -83 -143 -153 -264 -71 -121 -138 -238 -150 -260
-12 -22 -61 -107 -109 -188 -47 -82 -97 -167 -110 -190 -41 -74 -60 -108 -206
-362 -79 -137 -154 -270 -168 -295 -147 -265 -189 -317 -281 -346 -53 -17
-209 -18 -3166 -17 -1743 0 -3124 -4 -3143 -9 -66 -18 -60 -54 33 -207 58 -96
59 -97 168 -291 96 -172 131 -224 203 -295 70 -69 146 -113 254 -146 l75 -23
2945 0 c1620 0 2967 3 2994 7 129 17 258 85 356 188 49 51 121 160 200 304 29
52 248 431 271 470 11 16 22 37 26 45 3 8 16 31 28 50 12 19 35 60 52 90 16
30 39 69 49 87 22 37 123 212 152 263 10 19 51 89 89 155 39 66 81 140 95 165
14 25 64 112 112 194 47 82 86 150 86 153 0 2 8 16 19 31 14 21 170 290 271
467 9 17 68 118 130 225 62 107 124 215 138 240 14 25 35 61 47 80 56 89 125
232 146 299 16 54 22 101 22 170 1 149 -29 241 -138 426 l-56 95 -559 0 c-308
0 -560 -2 -560 -4z"/>
</g>
</svg>
