<?xml version="1.0" standalone="no"?>
<!DOCTYPE svg PUBLIC "-//W3C//DTD SVG 20010904//EN"
 "http://www.w3.org/TR/2001/REC-SVG-20010904/DTD/svg10.dtd">
<svg version="1.0" xmlns="http://www.w3.org/2000/svg"
 width="580.000000pt" height="580.000000pt" viewBox="0 0 580.000000 580.000000"
 preserveAspectRatio="xMidYMid meet">
<metadata>
Created by potrace 1.14, written by Peter Selinger 2001-2017
</metadata>
<g transform="translate(0.000000,580.000000) scale(0.100000,-0.100000)"
fill="#000000" stroke="none">
<path d="M2057 4670 c-102 -32 -150 -87 -285 -330 -44 -81 -388 -678 -402
-700 -5 -8 -26 -44 -46 -80 -21 -36 -94 -162 -162 -280 -147 -253 -162 -289
-158 -384 3 -59 10 -83 48 -155 l44 -86 272 0 c150 0 272 2 272 4 0 2 -30 53
-66 112 -60 99 -66 113 -61 150 5 41 28 83 256 474 68 116 133 228 146 250 12
22 38 67 57 100 19 33 79 137 132 232 101 178 129 215 174 231 16 5 603 8
1407 8 759 -1 1395 0 1413 2 24 3 32 9 32 24 0 21 -143 277 -187 335 -32 42
-80 74 -144 95 -41 14 -195 16 -1365 16 -1239 0 -1323 -1 -1377 -18z"/>
<path d="M2447 3909 c-25 -7 -86 -64 -87 -81 0 -3 -28 -55 -62 -115 -33 -59
-69 -121 -78 -138 -38 -68 -247 -428 -306 -528 -35 -60 -64 -117 -64 -128 0
-42 109 -225 140 -237 10 -4 341 -7 734 -6 530 1 719 -2 726 -11 6 -7 -10 -47
-52 -121 -71 -128 -90 -151 -132 -160 -17 -4 -716 -7 -1553 -7 -838 0 -1523
-1 -1523 -4 0 -2 34 -63 76 -135 42 -72 84 -146 93 -162 10 -17 34 -61 55 -99
l38 -67 1553 2 c1503 3 1554 4 1574 22 17 15 165 267 244 416 10 19 25 45 33
57 7 12 23 39 35 60 12 21 67 114 123 207 99 166 101 171 103 235 1 51 -3 76
-20 108 -32 60 -83 113 -120 124 -18 5 -335 9 -728 9 -556 0 -699 3 -707 13
-8 9 8 45 62 141 40 71 79 132 86 136 7 4 665 8 1462 8 797 0 1451 2 1454 5 3
2 -41 82 -96 177 -56 95 -110 188 -121 207 -11 19 -26 45 -34 57 l-15 23
-1433 0 c-787 0 -1445 -4 -1460 -8z"/>
<path d="M4364 3158 c-3 -4 5 -25 18 -46 81 -138 98 -172 98 -198 0 -19 -33
-86 -90 -184 -49 -85 -93 -161 -97 -169 -3 -8 -35 -64 -71 -125 -36 -61 -75
-129 -87 -151 -255 -448 -365 -632 -389 -649 l-27 -21 -1519 -3 c-1320 -2
-1519 -4 -1530 -17 -10 -12 4 -43 76 -170 95 -166 140 -222 214 -258 l45 -22
1455 0 1455 0 57 28 c32 16 73 47 92 69 20 22 100 153 178 290 79 136 151 263
161 280 26 45 171 296 194 338 11 19 44 76 73 125 29 50 62 108 75 130 12 22
64 112 115 200 102 175 130 241 130 309 0 76 -75 245 -110 247 -87 5 -513 2
-516 -3z"/>
</g>
</svg>
