<svg id="Layer_1" data-name="Layer 1" xmlns="http://www.w3.org/2000/svg" viewBox="0 0 1480.39 248.37"><defs><style>.cls-1{fill:#fdbe2b;}</style></defs><path class="cls-1" d="M395.5,95.37c0-18.16,14.35-36,42.44-36h80.61l-7.64,25.19H438.25c-8.7,0-13,5.49-13,10.83,0,5.5,4.43,10.69,13,10.69h40.91c27.63,0,42,17.86,42,36,0,17.71-13.59,35.72-42,35.72H395.5l7.64-25.19h75.71c8.55,0,13-5,13-10.53s-4.27-11-13-11H437.94C409.4,131.09,395.5,113.23,395.5,95.37Z"/><path class="cls-1" d="M566.32,94.31v20.91h55.11c8.54,0,13-7.79,13-15.57s-4.27-15.11-13-15.11H538.07l5.43-17.9a10.26,10.26,0,0,1,9.83-7.29H620.2c28.7,0,44,21.06,44,41.67,0,19.85-14,39.39-44,39.39H566.32v37.4H538.07V101.94Z"/><path class="cls-1" d="M704.76,94.31v20.91h50.53c8.55,0,13-7.79,13-15.57s-4.27-15.11-13-15.11H676.52L682,66.64a10.26,10.26,0,0,1,9.83-7.29H755.6C783.38,59.35,798,80.41,798,101c0,15.57-8.4,31.14-25.95,36.94l29.46,39.85H776.69a16,16,0,0,1-13.2-6.93l-21-30.47H704.76v37.4H676.52V101.94Z"/><path class="cls-1" d="M874.66,180.4c-37.86,0-69.31-20-69.31-61.82s31.45-61.83,69.31-61.83c39.08,0,71.29,18.78,71.29,61.83C946,161.47,913.74,180.4,874.66,180.4ZM876,154.76c26.41,0,40.15-10.69,40.15-36.18S902.44,82.4,876,82.4c-27.32,0-40.91,9.92-40.91,36.18S848.71,154.76,876,154.76Z"/><path class="cls-1" d="M1077.53,59.35l-7.63,25.19h-65c-15.57,0-23.66,17.55-23.66,34.8,0,16.79,7.64,33.28,23.66,33.28h72.67l-7.63,25.19h-68.39c-33,0-50.07-30.38-50.07-60.3,0-29.31,16.33-58.16,50.07-58.16Z"/><path class="cls-1" d="M1205.29,59.35l-64.11,57.85,67.17,60.61H1172.7a16,16,0,0,1-11-4.34l-43.61-40.85v45.19h-28.25v-106a10.28,10.28,0,0,1,7.6-9.92l20.65-5.58v48.39l48.24-45.33Z"/><path class="cls-1" d="M1248.48,152.62h86.41l-7.64,25.19h-107V69.62a10.27,10.27,0,0,1,10.27-10.27h104.38l-7.64,25.19h-78.77v21.52h73.43v25.19h-73.43Z"/><path class="cls-1" d="M1352.78,59.35h113.54l-7.64,25.19h-44.27v93.27h-28.24V84.54h-43.66V69.62A10.27,10.27,0,0,1,1352.78,59.35Z"/><path class="cls-1" d="M99.23,186.42c9.44-.08,18.9-.08,28.34-.08h10.3q9,0,18,0c19.23,0,38.45-.06,57.68.06,3.18,0,5.27-.73,6.95-3.71,9.1-16.13,18-32.4,27.8-48.08,4.25-6.81,4.7-12-.08-18.52-2.5-3.36-4.64-5-8.88-5-26,.16-52,.08-77.92.08-1.36,0-2.69,0-4-.06-2-.14-2.74-1.13-1.66-3,2.59-4.54,5.22-9,7.82-13.55C164.61,92.79,166.33,93,168,93q28.46,0,56.94,0h117.4L325.78,64.6h-57.2a14.26,14.26,0,0,0-1.92-.13q-56.4.24-112.81,0c-4.09,0-6.48,1.3-8.47,4.8-9.94,17.61-20.09,35.07-30.16,52.58-.67,1.17-1.91,2.31-1.46,3.67,1.5,4.66,4.25,8.75,7,12.7,1.84,2.61,5,1.4,7.62,1.4,25.79.08,51.6,0,77.39,0,6.79,0,6.77,0,3.3,6.06-1.52,2.63-3.1,5.22-4.45,7.94-1.6,3.2-3.91,4.47-7.64,4.45q-29.58-.15-59.16-.08v0H12.76L29,186.34H97.65A13,13,0,0,0,99.23,186.42Z"/><path class="cls-1" d="M298.59,110.44H266q3.19,5.5,6.49,11c1.82,3,1.54,5.43-.17,8.37Q252,164.72,232,199.83c-2.13,3.79-4.66,5-8.86,5-31.68-.14-128-.08-159.71-.08-5.9,0-11.79.06-17.71,0-3.58,0-5.29.59-2.77,4.5,2.91,4.54,5.41,9.32,8.1,14,3.75,6.54,9.28,9.87,16.94,9.87,33.73-.06,132.06-.08,165.79,0,7.88,0,13.47-3.37,17.34-10.09q25.08-43.56,50.21-87.08c4.11-7.11,4.07-13.9-.08-21C300.34,113.42,299.46,111.94,298.59,110.44Z"/><path class="cls-1" d="M68.21,141H101c-2.06-3.56-4.21-7.11-6.4-10.59-2.33-3.69-2-6.53.14-10.15C108,97.64,121.15,74.9,134,52c2.49-4.42,5.25-5.92,10.29-5.88,36.94.23,126.69.13,163.6.11,6.12,0,6.26-.31,3.16-5.72-2.35-4.09-4.72-8.16-7-12.3-3.83-7-9.76-10.49-17.7-10.51-33.56,0-119.95,0-153.5,0-7.88,0-13.67,3.48-17.68,10.51q-24.66,43.23-49.7,86.23c-4.32,7.42-4.4,14.51,0,21.93C66.41,137.93,67.32,139.47,68.21,141Z"/></svg>