
<svg id="Layer_1" data-name="Layer 1" xmlns="http://www.w3.org/2000/svg" viewBox="0 0 579.1 392.65"><defs><style>.cls-1{fill:#febf2b;}</style></defs><path class="cls-1" d="M160.42,295c15.54-.13,31.12-.13,46.66-.13H224c9.91,0,19.78,0,29.69,0,31.65,0,63.3-.1,95,.1,5.24,0,8.67-1.2,11.44-6.1,15-26.55,29.62-53.33,45.76-79.15,7-11.2,7.74-19.78-.14-30.48-4.1-5.54-7.63-8.27-14.6-8.21-42.76.27-85.52.14-128.28.14-2.23,0-4.43,0-6.67-.1-3.33-.24-4.5-1.87-2.73-4.94,4.27-7.47,8.6-14.87,12.87-22.31,1.74-3,4.57-2.7,7.37-2.7q46.86,0,93.74,0H560.69L533.36,94.48H439.19a23.6,23.6,0,0,0-3.15-.22q-92.85.4-185.7,0c-6.74,0-10.67,2.13-13.94,7.9-16.38,29-33.09,57.73-49.66,86.55-1.11,1.94-3.14,3.8-2.41,6,2.47,7.67,7,14.41,11.61,20.91,3,4.3,8.27,2.3,12.54,2.3,42.46.13,85,.07,127.41.07,11.17,0,11.14,0,5.43,10-2.5,4.34-5.1,8.6-7.34,13.07-2.63,5.27-6.43,7.37-12.57,7.34q-48.68-.25-97.39-.13v0H18.08l26.76,46.6h113A21.23,21.23,0,0,0,160.42,295Z"/><path class="cls-1" d="M488.6,169.94H434.87q5.26,9.06,10.68,18c3,5,2.53,8.94-.27,13.78q-33.42,57.53-66.37,115.33c-3.5,6.24-7.67,8.2-14.58,8.17-52.16-.23-210.71-.13-262.91-.13-9.7,0-19.41.1-29.15,0-5.9-.06-8.7,1-4.57,7.41,4.81,7.47,8.91,15.34,13.34,23,6.17,10.78,15.28,16.25,27.89,16.25,55.53-.1,217.38-.14,272.91,0,13,0,22.18-5.54,28.55-16.61q41.28-71.7,82.65-143.35c6.77-11.71,6.7-22.88-.13-34.52Z"/><path class="cls-1" d="M109.36,220.3h53.9c-3.41-5.87-6.94-11.7-10.54-17.44-3.84-6.07-3.24-10.74.23-16.71,21.85-37.29,43.56-74.71,64.77-112.4,4.1-7.27,8.64-9.74,16.94-9.67,60.8.37,208.55.2,269.32.17,10.07,0,10.3-.5,5.2-9.41-3.87-6.73-7.77-13.44-11.5-20.24C491.37,23,481.6,17.32,468.53,17.29c-55.23,0-197.45-.07-252.68,0-13,0-22.51,5.74-29.11,17.31q-40.58,71.15-81.82,142c-7.1,12.2-7.23,23.88,0,36.08C106.39,215.2,107.89,217.73,109.36,220.3Z"/></svg>
